<svg xmlns="http://www.w3.org/2000/svg" id="uuid-aa0050b2-9dd0-4f58-b62d-dfb10f151e54" viewBox="0 0 18 18">
  <defs>
    <linearGradient id="uuid-0cae0fff-baeb-4241-ab96-1b0a26042564" x1="8.999" y1="3.298" x2="9.004" y2=".102" gradientUnits="userSpaceOnUse">
      <stop offset="0" stop-color="#2764e7"/>
      <stop offset="1" stop-color="#3bd5ff"/>
    </linearGradient>
    <linearGradient id="uuid-fbcaa26c-70f9-4f2c-90c6-6b0c975494f5" x1="12.509" y1="16.234" x2="4.432" y2="-2.98" gradientUnits="userSpaceOnUse">
      <stop offset="0" stop-color="#2764e7"/>
      <stop offset="1" stop-color="#3bd5ff"/>
    </linearGradient>
  </defs>
  <g>
    <path d="M1.623,3.239c-.187-1.73,1.168-3.239,2.908-3.239h8.937c1.74,0,3.095,1.51,2.908,3.239l-1.4,12.953c-.111,1.028-.979,1.807-2.013,1.807h-7.926c-1.034,0-1.902-.779-2.013-1.807L1.623,3.239ZM2.972,2.698h12.055c-.109-.754-.758-1.348-1.559-1.348H4.531c-.801,0-1.45.594-1.559,1.348Z" fill="url(#uuid-0cae0fff-baeb-4241-ab96-1b0a26042564)"/>
    <path d="M1.623,3.239l1.4,12.953c.111,1.028.979,1.807,2.013,1.807h7.926c1.034,0,1.902-.779,2.013-1.807l1.4-12.953c.019-.178.021-.353.009-.525H1.614c-.012.172-.01.347.009.525Z" fill="url(#uuid-fbcaa26c-70f9-4f2c-90c6-6b0c975494f5)"/>
  </g>
  <g>
    <path d="M8.812,7.568c.089-.133.285-.133.374,0l.602.9c.207.31.626.393.936.186.31-.207.393-.626.186-.936l-.602-.9c-.624-.932-1.994-.932-2.618,0l-.602.9c-.207.31-.124.729.186.936.31.207.729.124.936-.186l.602-.9Z" fill="#fff"/>
    <path d="M7.103,10.465c.192-.32.088-.734-.232-.926-.32-.192-.734-.088-.926.231l-.328.546c-.72,1.2.144,2.726,1.543,2.726h.713c.373,0,.675-.302.675-.675s-.302-.675-.675-.675h-.713c-.35,0-.566-.382-.386-.682l.328-.546Z" fill="#fff"/>
    <path d="M11.129,9.539c-.32.192-.424.606-.232.926l.328.547c.18.3-.036.681-.386.681h-.715c-.373,0-.675.302-.675.675s.302.675.675.675h.715c1.399,0,2.263-1.525,1.544-2.725l-.328-.547c-.192-.32-.606-.424-.926-.232Z" fill="#fff"/>
  </g>
</svg>