<svg xmlns="http://www.w3.org/2000/svg" id="uuid-dd252200-7179-45ed-91b5-53109ea9467e" viewBox="0 0 18 18">
  <path d="M17.733,13.935l-.517-.509c.379-.587.606-1.282.623-2.029-.067-1.887-1.507-3.446-3.396-3.676-.069-2.089-1.449-3.829-3.33-4.47-.137-.618-.337-1.206-.602-1.224.004,0,.007-.002.011-.002.01,0,.02.003.03.005-.057-.022-.128-.041-.221-.046-.301-.017-.393-.006-.393-.006l-1.45.002c-.267,0-.483.215-.483.48l.002.69c-1.577.404-2.895,1.546-3.481,3.113C2.24,6.539.498,8.43.425,10.715c.042,1.092.457,2.082,1.117,2.856-.003.003-.006.006-.009.009-.26-.307-.483-.645-.658-1.012-.434.708-.914,1.617-.695,1.865-.003-.002-.006-.004-.009-.006-.007-.008-.012-.016-.018-.025.024.056.061.119.124.188.201.223.273.28.273.28l1.026,1.016c.189.187.495.187.683,0l1.03-1.029c.575.246,1.207.383,1.869.383.057,0,.114,0,.171-.003h1.722v-6.03h4.028v6.03h2.618c.035.005.071.007.106.007s.071-.002.106-.007c.601-.004,1.171-.142,1.681-.384.004.005.009.01.013.015-.309.148-.639.259-.986.324.794.547,1.487.946,1.651.808-.003.003-.004.007-.007.009-.008.007-.017.012-.025.018.056-.024.12-.061.189-.123.225-.2.282-.271.282-.271l1.024-1.018c.188-.187.188-.491,0-.678ZM13.907,14.649h-.04s-.039.006-.039.006c-.008.001-.015.002-.023.002s-.015,0-.023-.002l-.042-.006h-2.069v-6.03h-5.211v6.03h-1.151c-.05.002-.1.003-.15.003-.499,0-.976-.087-1.419-.246l.908-.907.619.612-.004-2.812-2.834.003.389.385s0,0,0,0l.281.274c-.074.09-.57.64-1.136,1.203-.557-.668-.907-1.516-.947-2.451.074-2,1.578-3.626,3.582-3.869l.357-.043.125-.335c.496-1.326,1.602-2.316,2.928-2.707l.007,2.063h-.874s2.006,1.987,2.006,1.987l2.002-1.99h-.55s0,.001,0,.001l-.394.003c-.015-.142-.075-1.228-.046-2.202.887.132,1.711.532,2.368,1.162.816.782,1.286,1.832,1.323,2.957l.017.502.503.061c1.604.195,2.811,1.497,2.876,3.098-.016.587-.182,1.132-.46,1.603l-1.459-1.438.617-.614-2.834.004.003,2.812.388-.386s0,0,0,0l.277-.279c.1.081.763.669,1.385,1.3-.387.156-.811.245-1.256.248ZM16.272,15.776c.002.005.004.01.006.015-.002-.005-.004-.01-.006-.015ZM16.297,15.856s0,.003,0,.004c0-.001,0-.003,0-.004Z" fill="#000000"/>
</svg>