<svg xmlns="http://www.w3.org/2000/svg" id="uuid-f7f00b70-5566-40c5-b201-2b58a6fbf3aa" viewBox="0 0 18 18">
  <rect x=".125" y=".125" width="17.75" height="17.75" rx="2.962" ry="2.962" fill="#906cfa"/>
  <path d="M5.439,1.754c-1.429,0-2.588,1.159-2.588,2.588v2.983c0,.51-.286.977-.74,1.208-.175.084-.295.261-.295.467s.12.384.295.467c.454.231.74.698.74,1.208v2.983c0,1.429,1.159,2.588,2.588,2.588.286,0,.518-.232.518-.518s-.232-.518-.518-.518c-.858,0-1.553-.695-1.553-1.553v-2.983c0-.637-.253-1.235-.685-1.675.431-.44.685-1.038.685-1.675v-2.983c0-.858.695-1.553,1.553-1.553.286,0,.518-.232.518-.518s-.232-.518-.518-.518ZM12.685,1.754c1.429,0,2.588,1.159,2.588,2.588v2.983c0,.51.286.977.74,1.208.175.084.295.261.295.467s-.12.384-.295.467c-.454.231-.74.698-.74,1.208v2.983c0,1.429-1.159,2.588-2.588,2.588-.286,0-.518-.232-.518-.518s.232-.518.518-.518c.858,0,1.553-.695,1.553-1.553v-2.983c0-.637.253-1.235.685-1.675-.431-.44-.685-1.038-.685-1.675v-2.983c0-.858-.695-1.553-1.553-1.553-.286,0-.518-.232-.518-.518s.232-.518.518-.518Z" fill="#fff"/>
  <path d="M13.269,11.389v-.472l-.066-.025-.506-.166-.132-.322.256-.546-.333-.333-.066.033-.471.238-.323-.133-.208-.571h-.472l-.025.066-.165.51-.322.133-.539-.258-.333.333.033.066.241.472-.133.322-.581.208v.472l.066.025.506.166.132.322-.254.546.333.333.066-.033.472-.238.322.132.208.571h.472l.025-.066.166-.507.322-.132.547.257.333-.333-.038-.069-.238-.472.133-.322s.571-.208.571-.208ZM11.2,12.075h0c-.502,0-.909-.407-.909-.909s.407-.909.909-.909.909.407.909.909-.407.909-.909.909h-.001.001Z" fill="#fff"/>
  <path d="M8.924,11.691v-.603c-.058-.042-.113-.09-.163-.143-.08-.084-.143-.172-.184-.242-.02-.036-.034-.064-.041-.083l-.002-.005v-.608h.225c.208,0,.402-.063.563-.171l.099-.099.176-.176c.108-.161.171-.354.171-.563v-.636c.259-.105.443-.359.443-.657,0-.391-.317-.708-.708-.708s-.708.317-.708.708c0,.297.183.551.443.657v.636c0,.264-.214.478-.478.478h-.225v-3.641s0-.011,0-.02c0-.019.003-.046.007-.08.009-.069.026-.156.057-.24.032-.084.073-.151.122-.195.044-.039.103-.069.202-.069.271,0,.54.092.736.244.193.15.306.351.306.581,0,.085.041.166.11.215s.158.064.239.037c.049-.016.1-.012.174.057.082.077.165.216.225.403.059.184.088.391.08.586-.009.197-.056.36-.13.471-.054.082-.059.186-.013.272.046.086.136.14.234.14.083,0,.137.013.173.03.032.015.063.039.092.087.055.088.102.252.117.539h.532s-.048-.577-.199-.82c-.08-.129-.185-.225-.316-.287-.008-.004-.016-.007-.023-.01.037-.13.057-.266.063-.399.012-.26-.027-.531-.104-.772-.076-.237-.197-.468-.367-.628-.107-.1-.239-.176-.388-.201-.07-.297-.25-.543-.479-.721-.295-.229-.679-.356-1.062-.356-.229,0-.414.079-.555.204-.038.034-.072.07-.102.108-.03-.037-.064-.074-.102-.108-.14-.125-.326-.204-.555-.204-.383,0-.768.127-1.062.356-.229.178-.408.424-.479.721-.148.025-.281.101-.388.201-.17.16-.291.39-.367.628-.077.241-.116.512-.104.772.006.133.026.269.063.399-.008.003-.016.007-.023.01-.131.062-.237.158-.316.287-.15.242-.204.592-.204,1.037,0,.511.195.859.447,1.074.146.125.307.203.449.244.049.245.173.521.361.756.256.32.653.591,1.188.591.428,0,.766-.237.982-.464.04-.042.076-.084.11-.126.034.042.07.084.11.126.217.227.547.38.547.38h0ZM9.504,7.529c.098,0,.177.079.177.177s-.079.177-.177.177-.177-.079-.177-.177.079-.177.177-.177ZM7.999,6.732h-.317c-.105-.259-.359-.443-.657-.443-.391,0-.708.317-.708.708s.317.708.708.708c.297,0,.551-.183.657-.443h.317v3.352l-.002.005c-.007.019-.02.047-.041.083-.041.071-.103.158-.184.242-.165.173-.372.299-.598.299-.337,0-.593-.166-.773-.391-.187-.234-.269-.504-.269-.652,0-.147-.119-.266-.266-.266-.046,0-.202-.032-.345-.154-.13-.111-.261-.31-.261-.671s.04-.573.093-.696h.929c.24,0,.439.177.472.407-.257.106-.437.359-.437.654,0,.391.317.708.708.708s.708-.317.708-.708c0-.298-.184-.553-.445-.657-.037-.523-.474-.935-1.006-.935h-.383c-.007-.02-.017-.04-.029-.059-.074-.111-.12-.274-.13-.471-.009-.194.021-.403.08-.586.06-.187.143-.326.225-.403.074-.069.125-.073.174-.057.081.027.17.013.239-.037s.11-.13.11-.215c0-.231.113-.431.306-.581.196-.153.465-.244.736-.244.098,0,.158.03.202.069.049.044.09.11.122.195.031.083.048.171.056.24.004.034.006.062.007.08,0,.009,0,.016,0,.02v.898h0ZM7.203,6.998c0,.098-.079.177-.177.177s-.177-.079-.177-.177.079-.177.177-.177.177.079.177.177ZM6.849,9.476c0-.098.079-.177.177-.177s.177.079.177.177-.079.177-.177.177-.177-.079-.177-.177Z" fill="#fff"/>
</svg>