<svg xmlns="http://www.w3.org/2000/svg" id="uuid-212e6860-cfab-4a5e-9799-154fe8124fd6" viewBox="0 0 18 18">
  <defs>
    <linearGradient id="uuid-0859a1ad-4fd7-40b5-84e3-d43dbab1d972" x1="6" y1="790.73" x2="12.09" y2="784.2" gradientTransform="translate(0 791.52) scale(1 -1)" gradientUnits="userSpaceOnUse">
      <stop offset="0" stop-color="#9c6cfe"/>
      <stop offset=".2" stop-color="#ac80ff"/>
      <stop offset=".5" stop-color="#bd96ff"/>
      <stop offset=".75" stop-color="#ac80ff"/>
      <stop offset=".9" stop-color="#9c6cfe"/>
      <stop offset="1" stop-color="#9c6cfe"/>
    </linearGradient>
  </defs>
  <path d="M17.84,13.6c-.17.73-1.07,1.44-2.71,1.99-4.09,1.2-8.45,1.21-12.54.02-1.51-.53-2.32-1.21-2.45-1.91-.02-.12,0-2.03,0-2.03l17.73-.16s-.01,2-.03,2.09Z" fill="#5ea0ef"/>
  <path d="M9.03,14.7c4.9-.05,8.86-1.46,8.84-3.16-.02-1.69-4-3.03-8.9-2.98-4.9.05-8.86,1.46-8.84,3.16.02,1.69,4,3.03,8.9,2.98Z" fill="#50e6ff"/>
  <g>
    <path d="M15.18,9.04c0-1.4-2.77-2.54-6.18-2.54s-6.17,1.14-6.17,2.54c0,.09.01.18.03.26v1.11c0,1.4,2.83,2.54,6.18,2.54s6.06-1.11,6.17-2.47l-.03-1.05v-.39Z" fill="#7a41dc"/>
    <ellipse cx="9.16" cy="9" rx="2.05" ry=".56" fill="#552f99"/>
    <ellipse cx="9.03" cy="4.03" rx="6.18" ry="2.54" fill="url(#uuid-0859a1ad-4fd7-40b5-84e3-d43dbab1d972)"/>
    <ellipse cx="9.19" cy="4" rx="2.05" ry=".56" fill="#552f99"/>
    <path d="M9.03,6.56c3.42,0,6.18-1.14,6.18-2.54h0v1.51h0c-.12,1.36-2.83,2.47-6.18,2.47s-6.17-1.14-6.17-2.54v-1.44c-.03,1.4,2.73,2.54,6.17,2.54Z" fill="#9c6cfe"/>
    <path d="M9.03,11.57c3.42,0,6.18-1.14,6.18-2.54h0v1.51h0c-.12,1.36-2.83,2.47-6.18,2.47s-6.17-1.14-6.17-2.54v-1.44c-.03,1.4,2.73,2.54,6.17,2.54Z" fill="#5b2ab5"/>
  </g>
</svg>